<?xml version="1.0" encoding="utf-8" standalone="no"?>
<!DOCTYPE svg PUBLIC "-//W3C//DTD SVG 1.1//EN"
  "http://www.w3.org/Graphics/SVG/1.1/DTD/svg11.dtd">
<svg height="279.698437pt" version="1.1" viewBox="0 0 608.878437 279.698437" width="608.878437pt" xmlns="http://www.w3.org/2000/svg" xmlns:xlink="http://www.w3.org/1999/xlink">
 <metadata>
  <rdf:RDF xmlns:cc="http://creativecommons.org/ns#" xmlns:dc="http://purl.org/dc/elements/1.1/" xmlns:rdf="http://www.w3.org/1999/02/22-rdf-syntax-ns#">
   <cc:Work>
    <dc:type rdf:resource="http://purl.org/dc/dcmitype/StillImage"/>
    <dc:date>2021-10-31T13:47:39.901832</dc:date>
    <dc:format>image/svg+xml</dc:format>
    <dc:creator>
     <cc:Agent>
      <dc:title>Matplotlib v3.4.3, https://matplotlib.org/</dc:title>
     </cc:Agent>
    </dc:creator>
   </cc:Work>
  </rdf:RDF>
 </metadata>
 <defs>
  <style type="text/css">*{stroke-linecap:butt;stroke-linejoin:round;}</style>
 </defs>
 <g id="figure_1">
  <g id="patch_1">
   <path d="M 0 279.698437 
L 608.878437 279.698437 
L 608.878437 0 
L 0 0 
z
" style="fill:#ffffff;"/>
  </g>
  <g id="axes_1">
   <g id="patch_2">
    <path d="M 117.058594 241.69375 
L 340.083594 241.69375 
L 340.083594 7.2 
L 117.058594 7.2 
z
" style="fill:#ffffff;"/>
   </g>
   <g id="patch_3">
    <path clip-path="url(#p93a321eb15)" d="M 127.196094 241.69375 
L 135.306094 241.69375 
L 135.306094 18.366369 
L 127.196094 18.366369 
z
" style="fill:#008000;fill-opacity:0.5;stroke:#000000;stroke-linejoin:miter;stroke-width:0.856682;"/>
   </g>
   <g id="patch_4">
    <path clip-path="url(#p93a321eb15)" d="M 135.306094 241.69375 
L 143.416094 241.69375 
L 143.416094 241.69375 
L 135.306094 241.69375 
z
" style="fill:#008000;fill-opacity:0.5;stroke:#000000;stroke-linejoin:miter;stroke-width:0.856682;"/>
   </g>
   <g id="patch_5">
    <path clip-path="url(#p93a321eb15)" d="M 143.416094 241.69375 
L 151.526094 241.69375 
L 151.526094 241.69375 
L 143.416094 241.69375 
z
" style="fill:#008000;fill-opacity:0.5;stroke:#000000;stroke-linejoin:miter;stroke-width:0.856682;"/>
   </g>
   <g id="patch_6">
    <path clip-path="url(#p93a321eb15)" d="M 151.526094 241.69375 
L 159.636094 241.69375 
L 159.636094 241.69375 
L 151.526094 241.69375 
z
" style="fill:#008000;fill-opacity:0.5;stroke:#000000;stroke-linejoin:miter;stroke-width:0.856682;"/>
   </g>
   <g id="patch_7">
    <path clip-path="url(#p93a321eb15)" d="M 159.636094 241.69375 
L 167.746094 241.69375 
L 167.746094 241.69375 
L 159.636094 241.69375 
z
" style="fill:#008000;fill-opacity:0.5;stroke:#000000;stroke-linejoin:miter;stroke-width:0.856682;"/>
   </g>
   <g id="patch_8">
    <path clip-path="url(#p93a321eb15)" d="M 167.746094 241.69375 
L 175.856094 241.69375 
L 175.856094 241.69375 
L 167.746094 241.69375 
z
" style="fill:#008000;fill-opacity:0.5;stroke:#000000;stroke-linejoin:miter;stroke-width:0.856682;"/>
   </g>
   <g id="patch_9">
    <path clip-path="url(#p93a321eb15)" d="M 175.856094 241.69375 
L 183.966094 241.69375 
L 183.966094 241.69375 
L 175.856094 241.69375 
z
" style="fill:#008000;fill-opacity:0.5;stroke:#000000;stroke-linejoin:miter;stroke-width:0.856682;"/>
   </g>
   <g id="patch_10">
    <path clip-path="url(#p93a321eb15)" d="M 183.966094 241.69375 
L 192.076094 241.69375 
L 192.076094 241.69375 
L 183.966094 241.69375 
z
" style="fill:#008000;fill-opacity:0.5;stroke:#000000;stroke-linejoin:miter;stroke-width:0.856682;"/>
   </g>
   <g id="patch_11">
    <path clip-path="url(#p93a321eb15)" d="M 192.076094 241.69375 
L 200.186094 241.69375 
L 200.186094 241.69375 
L 192.076094 241.69375 
z
" style="fill:#008000;fill-opacity:0.5;stroke:#000000;stroke-linejoin:miter;stroke-width:0.856682;"/>
   </g>
   <g id="patch_12">
    <path clip-path="url(#p93a321eb15)" d="M 200.186094 241.69375 
L 208.296094 241.69375 
L 208.296094 241.69375 
L 200.186094 241.69375 
z
" style="fill:#008000;fill-opacity:0.5;stroke:#000000;stroke-linejoin:miter;stroke-width:0.856682;"/>
   </g>
   <g id="patch_13">
    <path clip-path="url(#p93a321eb15)" d="M 208.296094 241.69375 
L 216.406094 241.69375 
L 216.406094 241.69375 
L 208.296094 241.69375 
z
" style="fill:#008000;fill-opacity:0.5;stroke:#000000;stroke-linejoin:miter;stroke-width:0.856682;"/>
   </g>
   <g id="patch_14">
    <path clip-path="url(#p93a321eb15)" d="M 216.406094 241.69375 
L 224.516094 241.69375 
L 224.516094 241.69375 
L 216.406094 241.69375 
z
" style="fill:#008000;fill-opacity:0.5;stroke:#000000;stroke-linejoin:miter;stroke-width:0.856682;"/>
   </g>
   <g id="patch_15">
    <path clip-path="url(#p93a321eb15)" d="M 224.516094 241.69375 
L 232.626094 241.69375 
L 232.626094 241.69375 
L 224.516094 241.69375 
z
" style="fill:#008000;fill-opacity:0.5;stroke:#000000;stroke-linejoin:miter;stroke-width:0.856682;"/>
   </g>
   <g id="patch_16">
    <path clip-path="url(#p93a321eb15)" d="M 232.626094 241.69375 
L 240.736094 241.69375 
L 240.736094 241.69375 
L 232.626094 241.69375 
z
" style="fill:#008000;fill-opacity:0.5;stroke:#000000;stroke-linejoin:miter;stroke-width:0.856682;"/>
   </g>
   <g id="patch_17">
    <path clip-path="url(#p93a321eb15)" d="M 240.736094 241.69375 
L 248.846094 241.69375 
L 248.846094 241.69375 
L 240.736094 241.69375 
z
" style="fill:#008000;fill-opacity:0.5;stroke:#000000;stroke-linejoin:miter;stroke-width:0.856682;"/>
   </g>
   <g id="patch_18">
    <path clip-path="url(#p93a321eb15)" d="M 248.846094 241.69375 
L 256.956094 241.69375 
L 256.956094 241.69375 
L 248.846094 241.69375 
z
" style="fill:#008000;fill-opacity:0.5;stroke:#000000;stroke-linejoin:miter;stroke-width:0.856682;"/>
   </g>
   <g id="patch_19">
    <path clip-path="url(#p93a321eb15)" d="M 256.956094 241.69375 
L 265.066094 241.69375 
L 265.066094 241.69375 
L 256.956094 241.69375 
z
" style="fill:#008000;fill-opacity:0.5;stroke:#000000;stroke-linejoin:miter;stroke-width:0.856682;"/>
   </g>
   <g id="patch_20">
    <path clip-path="url(#p93a321eb15)" d="M 265.066094 241.69375 
L 273.176094 241.69375 
L 273.176094 216.879597 
L 265.066094 216.879597 
z
" style="fill:#008000;fill-opacity:0.5;stroke:#000000;stroke-linejoin:miter;stroke-width:0.856682;"/>
   </g>
   <g id="patch_21">
    <path clip-path="url(#p93a321eb15)" d="M 273.176094 241.69375 
L 281.286094 241.69375 
L 281.286094 216.879597 
L 273.176094 216.879597 
z
" style="fill:#008000;fill-opacity:0.5;stroke:#000000;stroke-linejoin:miter;stroke-width:0.856682;"/>
   </g>
   <g id="patch_22">
    <path clip-path="url(#p93a321eb15)" d="M 281.286094 241.69375 
L 289.396094 241.69375 
L 289.396094 241.69375 
L 281.286094 241.69375 
z
" style="fill:#008000;fill-opacity:0.5;stroke:#000000;stroke-linejoin:miter;stroke-width:0.856682;"/>
   </g>
   <g id="patch_23">
    <path clip-path="url(#p93a321eb15)" d="M 289.396094 241.69375 
L 297.506094 241.69375 
L 297.506094 241.69375 
L 289.396094 241.69375 
z
" style="fill:#008000;fill-opacity:0.5;stroke:#000000;stroke-linejoin:miter;stroke-width:0.856682;"/>
   </g>
   <g id="patch_24">
    <path clip-path="url(#p93a321eb15)" d="M 297.506094 241.69375 
L 305.616094 241.69375 
L 305.616094 241.69375 
L 297.506094 241.69375 
z
" style="fill:#008000;fill-opacity:0.5;stroke:#000000;stroke-linejoin:miter;stroke-width:0.856682;"/>
   </g>
   <g id="patch_25">
    <path clip-path="url(#p93a321eb15)" d="M 305.616094 241.69375 
L 313.726094 241.69375 
L 313.726094 192.065443 
L 305.616094 192.065443 
z
" style="fill:#008000;fill-opacity:0.5;stroke:#000000;stroke-linejoin:miter;stroke-width:0.856682;"/>
   </g>
   <g id="patch_26">
    <path clip-path="url(#p93a321eb15)" d="M 313.726094 241.69375 
L 321.836094 241.69375 
L 321.836094 105.215906 
L 313.726094 105.215906 
z
" style="fill:#008000;fill-opacity:0.5;stroke:#000000;stroke-linejoin:miter;stroke-width:0.856682;"/>
   </g>
   <g id="patch_27">
    <path clip-path="url(#p93a321eb15)" d="M 321.836094 241.69375 
L 329.946094 241.69375 
L 329.946094 142.437136 
L 321.836094 142.437136 
z
" style="fill:#008000;fill-opacity:0.5;stroke:#000000;stroke-linejoin:miter;stroke-width:0.856682;"/>
   </g>
   <g id="matplotlib.axis_1">
    <g id="xtick_1">
     <g id="line2d_1">
      <defs>
       <path d="M 0 0 
L 0 3.5 
" id="m66cfa8d3f8" style="stroke:#000000;stroke-width:0.8;"/>
      </defs>
      <g>
       <use style="stroke:#000000;stroke-width:0.8;" x="127.196094" xlink:href="#m66cfa8d3f8" y="241.69375"/>
      </g>
     </g>
     <g id="text_1">
      <!-- 0 -->
      <g transform="translate(124.014844 256.292187)scale(0.1 -0.1)">
       <defs>
        <path d="M 2034 4250 
Q 1547 4250 1301 3770 
Q 1056 3291 1056 2328 
Q 1056 1369 1301 889 
Q 1547 409 2034 409 
Q 2525 409 2770 889 
Q 3016 1369 3016 2328 
Q 3016 3291 2770 3770 
Q 2525 4250 2034 4250 
z
M 2034 4750 
Q 2819 4750 3233 4129 
Q 3647 3509 3647 2328 
Q 3647 1150 3233 529 
Q 2819 -91 2034 -91 
Q 1250 -91 836 529 
Q 422 1150 422 2328 
Q 422 3509 836 4129 
Q 1250 4750 2034 4750 
z
" id="DejaVuSans-30" transform="scale(0.015625)"/>
       </defs>
       <use xlink:href="#DejaVuSans-30"/>
      </g>
     </g>
    </g>
    <g id="xtick_2">
     <g id="line2d_2">
      <g>
       <use style="stroke:#000000;stroke-width:0.8;" x="167.746094" xlink:href="#m66cfa8d3f8" y="241.69375"/>
      </g>
     </g>
     <g id="text_2">
      <!-- 20 -->
      <g transform="translate(161.383594 256.292187)scale(0.1 -0.1)">
       <defs>
        <path d="M 1228 531 
L 3431 531 
L 3431 0 
L 469 0 
L 469 531 
Q 828 903 1448 1529 
Q 2069 2156 2228 2338 
Q 2531 2678 2651 2914 
Q 2772 3150 2772 3378 
Q 2772 3750 2511 3984 
Q 2250 4219 1831 4219 
Q 1534 4219 1204 4116 
Q 875 4013 500 3803 
L 500 4441 
Q 881 4594 1212 4672 
Q 1544 4750 1819 4750 
Q 2544 4750 2975 4387 
Q 3406 4025 3406 3419 
Q 3406 3131 3298 2873 
Q 3191 2616 2906 2266 
Q 2828 2175 2409 1742 
Q 1991 1309 1228 531 
z
" id="DejaVuSans-32" transform="scale(0.015625)"/>
       </defs>
       <use xlink:href="#DejaVuSans-32"/>
       <use x="63.623047" xlink:href="#DejaVuSans-30"/>
      </g>
     </g>
    </g>
    <g id="xtick_3">
     <g id="line2d_3">
      <g>
       <use style="stroke:#000000;stroke-width:0.8;" x="208.296094" xlink:href="#m66cfa8d3f8" y="241.69375"/>
      </g>
     </g>
     <g id="text_3">
      <!-- 40 -->
      <g transform="translate(201.933594 256.292187)scale(0.1 -0.1)">
       <defs>
        <path d="M 2419 4116 
L 825 1625 
L 2419 1625 
L 2419 4116 
z
M 2253 4666 
L 3047 4666 
L 3047 1625 
L 3713 1625 
L 3713 1100 
L 3047 1100 
L 3047 0 
L 2419 0 
L 2419 1100 
L 313 1100 
L 313 1709 
L 2253 4666 
z
" id="DejaVuSans-34" transform="scale(0.015625)"/>
       </defs>
       <use xlink:href="#DejaVuSans-34"/>
       <use x="63.623047" xlink:href="#DejaVuSans-30"/>
      </g>
     </g>
    </g>
    <g id="xtick_4">
     <g id="line2d_4">
      <g>
       <use style="stroke:#000000;stroke-width:0.8;" x="248.846094" xlink:href="#m66cfa8d3f8" y="241.69375"/>
      </g>
     </g>
     <g id="text_4">
      <!-- 60 -->
      <g transform="translate(242.483594 256.292187)scale(0.1 -0.1)">
       <defs>
        <path d="M 2113 2584 
Q 1688 2584 1439 2293 
Q 1191 2003 1191 1497 
Q 1191 994 1439 701 
Q 1688 409 2113 409 
Q 2538 409 2786 701 
Q 3034 994 3034 1497 
Q 3034 2003 2786 2293 
Q 2538 2584 2113 2584 
z
M 3366 4563 
L 3366 3988 
Q 3128 4100 2886 4159 
Q 2644 4219 2406 4219 
Q 1781 4219 1451 3797 
Q 1122 3375 1075 2522 
Q 1259 2794 1537 2939 
Q 1816 3084 2150 3084 
Q 2853 3084 3261 2657 
Q 3669 2231 3669 1497 
Q 3669 778 3244 343 
Q 2819 -91 2113 -91 
Q 1303 -91 875 529 
Q 447 1150 447 2328 
Q 447 3434 972 4092 
Q 1497 4750 2381 4750 
Q 2619 4750 2861 4703 
Q 3103 4656 3366 4563 
z
" id="DejaVuSans-36" transform="scale(0.015625)"/>
       </defs>
       <use xlink:href="#DejaVuSans-36"/>
       <use x="63.623047" xlink:href="#DejaVuSans-30"/>
      </g>
     </g>
    </g>
    <g id="xtick_5">
     <g id="line2d_5">
      <g>
       <use style="stroke:#000000;stroke-width:0.8;" x="289.396094" xlink:href="#m66cfa8d3f8" y="241.69375"/>
      </g>
     </g>
     <g id="text_5">
      <!-- 80 -->
      <g transform="translate(283.033594 256.292187)scale(0.1 -0.1)">
       <defs>
        <path d="M 2034 2216 
Q 1584 2216 1326 1975 
Q 1069 1734 1069 1313 
Q 1069 891 1326 650 
Q 1584 409 2034 409 
Q 2484 409 2743 651 
Q 3003 894 3003 1313 
Q 3003 1734 2745 1975 
Q 2488 2216 2034 2216 
z
M 1403 2484 
Q 997 2584 770 2862 
Q 544 3141 544 3541 
Q 544 4100 942 4425 
Q 1341 4750 2034 4750 
Q 2731 4750 3128 4425 
Q 3525 4100 3525 3541 
Q 3525 3141 3298 2862 
Q 3072 2584 2669 2484 
Q 3125 2378 3379 2068 
Q 3634 1759 3634 1313 
Q 3634 634 3220 271 
Q 2806 -91 2034 -91 
Q 1263 -91 848 271 
Q 434 634 434 1313 
Q 434 1759 690 2068 
Q 947 2378 1403 2484 
z
M 1172 3481 
Q 1172 3119 1398 2916 
Q 1625 2713 2034 2713 
Q 2441 2713 2670 2916 
Q 2900 3119 2900 3481 
Q 2900 3844 2670 4047 
Q 2441 4250 2034 4250 
Q 1625 4250 1398 4047 
Q 1172 3844 1172 3481 
z
" id="DejaVuSans-38" transform="scale(0.015625)"/>
       </defs>
       <use xlink:href="#DejaVuSans-38"/>
       <use x="63.623047" xlink:href="#DejaVuSans-30"/>
      </g>
     </g>
    </g>
    <g id="xtick_6">
     <g id="line2d_6">
      <g>
       <use style="stroke:#000000;stroke-width:0.8;" x="329.946094" xlink:href="#m66cfa8d3f8" y="241.69375"/>
      </g>
     </g>
     <g id="text_6">
      <!-- 100 -->
      <g transform="translate(320.402344 256.292187)scale(0.1 -0.1)">
       <defs>
        <path d="M 794 531 
L 1825 531 
L 1825 4091 
L 703 3866 
L 703 4441 
L 1819 4666 
L 2450 4666 
L 2450 531 
L 3481 531 
L 3481 0 
L 794 0 
L 794 531 
z
" id="DejaVuSans-31" transform="scale(0.015625)"/>
       </defs>
       <use xlink:href="#DejaVuSans-31"/>
       <use x="63.623047" xlink:href="#DejaVuSans-30"/>
       <use x="127.246094" xlink:href="#DejaVuSans-30"/>
      </g>
     </g>
    </g>
    <g id="text_7">
     <!-- Производственная практика, научно-исследовательская работа Зачет с оценкой_y -->
     <g transform="translate(7.2 270.140625)scale(0.1 -0.1)">
      <defs>
       <path d="M 4184 4666 
L 4184 0 
L 3553 0 
L 3553 4134 
L 1259 4134 
L 1259 0 
L 628 0 
L 628 4666 
L 4184 4666 
z
" id="DejaVuSans-41f" transform="scale(0.015625)"/>
       <path d="M 1159 525 
L 1159 -1331 
L 581 -1331 
L 581 3500 
L 1159 3500 
L 1159 2969 
Q 1341 3281 1617 3432 
Q 1894 3584 2278 3584 
Q 2916 3584 3314 3078 
Q 3713 2572 3713 1747 
Q 3713 922 3314 415 
Q 2916 -91 2278 -91 
Q 1894 -91 1617 61 
Q 1341 213 1159 525 
z
M 3116 1747 
Q 3116 2381 2855 2742 
Q 2594 3103 2138 3103 
Q 1681 3103 1420 2742 
Q 1159 2381 1159 1747 
Q 1159 1113 1420 752 
Q 1681 391 2138 391 
Q 2594 391 2855 752 
Q 3116 1113 3116 1747 
z
" id="DejaVuSans-440" transform="scale(0.015625)"/>
       <path d="M 1959 3097 
Q 1497 3097 1228 2736 
Q 959 2375 959 1747 
Q 959 1119 1226 758 
Q 1494 397 1959 397 
Q 2419 397 2687 759 
Q 2956 1122 2956 1747 
Q 2956 2369 2687 2733 
Q 2419 3097 1959 3097 
z
M 1959 3584 
Q 2709 3584 3137 3096 
Q 3566 2609 3566 1747 
Q 3566 888 3137 398 
Q 2709 -91 1959 -91 
Q 1206 -91 779 398 
Q 353 888 353 1747 
Q 353 2609 779 3096 
Q 1206 3584 1959 3584 
z
" id="DejaVuSans-43e" transform="scale(0.015625)"/>
       <path d="M 3578 3500 
L 3578 0 
L 3006 0 
L 3006 2809 
L 1319 0 
L 581 0 
L 581 3500 
L 1153 3500 
L 1153 697 
L 2838 3500 
L 3578 3500 
z
" id="DejaVuSans-438" transform="scale(0.015625)"/>
       <path d="M 2206 1888 
Q 2594 1813 2809 1584 
Q 3025 1356 3025 1019 
Q 3025 478 2622 193 
Q 2219 -91 1475 -91 
Q 1225 -91 961 -47 
Q 697 -3 416 84 
L 416 619 
Q 638 503 903 445 
Q 1169 388 1459 388 
Q 1931 388 2195 563 
Q 2459 738 2459 1019 
Q 2459 1294 2225 1461 
Q 1991 1628 1563 1628 
L 1100 1628 
L 1100 2103 
L 1584 2103 
Q 1947 2103 2158 2242 
Q 2369 2381 2369 2600 
Q 2369 2800 2151 2944 
Q 1934 3088 1563 3088 
Q 1341 3088 1089 3047 
Q 838 3006 534 2916 
L 534 3438 
Q 841 3513 1106 3550 
Q 1372 3588 1609 3588 
Q 2222 3588 2576 3342 
Q 2931 3097 2931 2656 
Q 2931 2366 2743 2164 
Q 2556 1963 2206 1888 
z
" id="DejaVuSans-437" transform="scale(0.015625)"/>
       <path d="M 1156 1613 
L 1156 459 
L 1975 459 
Q 2369 459 2575 607 
Q 2781 756 2781 1038 
Q 2781 1319 2575 1466 
Q 2369 1613 1975 1613 
L 1156 1613 
z
M 1156 3041 
L 1156 2072 
L 1913 2072 
Q 2238 2072 2444 2201 
Q 2650 2331 2650 2563 
Q 2650 2794 2444 2917 
Q 2238 3041 1913 3041 
L 1156 3041 
z
M 581 3500 
L 1950 3500 
Q 2566 3500 2897 3275 
Q 3228 3050 3228 2634 
Q 3228 2313 3059 2123 
Q 2891 1934 2559 1888 
Q 2956 1813 3175 1575 
Q 3394 1338 3394 981 
Q 3394 513 3033 256 
Q 2672 0 2003 0 
L 581 0 
L 581 3500 
z
" id="DejaVuSans-432" transform="scale(0.015625)"/>
       <path d="M 1384 459 
L 3053 459 
L 3053 3041 
L 1844 3041 
L 1844 2603 
Q 1844 1316 1475 628 
L 1384 459 
z
M 550 459 
Q 834 584 959 850 
Q 1266 1509 1266 2838 
L 1266 3500 
L 3631 3500 
L 3631 459 
L 4091 459 
L 4091 -884 
L 3631 -884 
L 3631 0 
L 794 0 
L 794 -884 
L 334 -884 
L 334 459 
L 550 459 
z
" id="DejaVuSans-434" transform="scale(0.015625)"/>
       <path d="M 3122 3366 
L 3122 2828 
Q 2878 2963 2633 3030 
Q 2388 3097 2138 3097 
Q 1578 3097 1268 2742 
Q 959 2388 959 1747 
Q 959 1106 1268 751 
Q 1578 397 2138 397 
Q 2388 397 2633 464 
Q 2878 531 3122 666 
L 3122 134 
Q 2881 22 2623 -34 
Q 2366 -91 2075 -91 
Q 1284 -91 818 406 
Q 353 903 353 1747 
Q 353 2603 823 3093 
Q 1294 3584 2113 3584 
Q 2378 3584 2631 3529 
Q 2884 3475 3122 3366 
z
" id="DejaVuSans-441" transform="scale(0.015625)"/>
       <path d="M 188 3500 
L 3541 3500 
L 3541 3041 
L 2147 3041 
L 2147 0 
L 1581 0 
L 1581 3041 
L 188 3041 
L 188 3500 
z
" id="DejaVuSans-442" transform="scale(0.015625)"/>
       <path d="M 3597 1894 
L 3597 1613 
L 953 1613 
Q 991 1019 1311 708 
Q 1631 397 2203 397 
Q 2534 397 2845 478 
Q 3156 559 3463 722 
L 3463 178 
Q 3153 47 2828 -22 
Q 2503 -91 2169 -91 
Q 1331 -91 842 396 
Q 353 884 353 1716 
Q 353 2575 817 3079 
Q 1281 3584 2069 3584 
Q 2775 3584 3186 3129 
Q 3597 2675 3597 1894 
z
M 3022 2063 
Q 3016 2534 2758 2815 
Q 2500 3097 2075 3097 
Q 1594 3097 1305 2825 
Q 1016 2553 972 2059 
L 3022 2063 
z
" id="DejaVuSans-435" transform="scale(0.015625)"/>
       <path d="M 581 3500 
L 1159 3500 
L 1159 2072 
L 3025 2072 
L 3025 3500 
L 3603 3500 
L 3603 0 
L 3025 0 
L 3025 1613 
L 1159 1613 
L 1159 0 
L 581 0 
L 581 3500 
z
" id="DejaVuSans-43d" transform="scale(0.015625)"/>
       <path d="M 2194 1759 
Q 1497 1759 1228 1600 
Q 959 1441 959 1056 
Q 959 750 1161 570 
Q 1363 391 1709 391 
Q 2188 391 2477 730 
Q 2766 1069 2766 1631 
L 2766 1759 
L 2194 1759 
z
M 3341 1997 
L 3341 0 
L 2766 0 
L 2766 531 
Q 2569 213 2275 61 
Q 1981 -91 1556 -91 
Q 1019 -91 701 211 
Q 384 513 384 1019 
Q 384 1609 779 1909 
Q 1175 2209 1959 2209 
L 2766 2209 
L 2766 2266 
Q 2766 2663 2505 2880 
Q 2244 3097 1772 3097 
Q 1472 3097 1187 3025 
Q 903 2953 641 2809 
L 641 3341 
Q 956 3463 1253 3523 
Q 1550 3584 1831 3584 
Q 2591 3584 2966 3190 
Q 3341 2797 3341 1997 
z
" id="DejaVuSans-430" transform="scale(0.015625)"/>
       <path d="M 1181 2491 
Q 1181 2231 1381 2084 
Q 1581 1938 1953 1938 
L 2728 1938 
L 2728 3041 
L 1953 3041 
Q 1581 3041 1381 2897 
Q 1181 2753 1181 2491 
z
M 363 0 
L 1431 1534 
Q 1069 1616 828 1830 
Q 588 2044 588 2491 
Q 588 2997 923 3248 
Q 1259 3500 1938 3500 
L 3306 3500 
L 3306 0 
L 2728 0 
L 2728 1478 
L 2013 1478 
L 981 0 
L 363 0 
z
" id="DejaVuSans-44f" transform="scale(0.015625)"/>
       <path id="DejaVuSans-20" transform="scale(0.015625)"/>
       <path d="M 3603 3500 
L 3603 0 
L 3025 0 
L 3025 3041 
L 1159 3041 
L 1159 0 
L 581 0 
L 581 3500 
L 3603 3500 
z
" id="DejaVuSans-43f" transform="scale(0.015625)"/>
       <path d="M 581 3500 
L 1153 3500 
L 1153 1856 
L 2775 3500 
L 3481 3500 
L 2144 2147 
L 3653 0 
L 3009 0 
L 1769 1766 
L 1153 1141 
L 1153 0 
L 581 0 
L 581 3500 
z
" id="DejaVuSans-43a" transform="scale(0.015625)"/>
       <path d="M 750 794 
L 1409 794 
L 1409 256 
L 897 -744 
L 494 -744 
L 750 256 
L 750 794 
z
" id="DejaVuSans-2c" transform="scale(0.015625)"/>
       <path d="M 2059 -325 
Q 1816 -950 1584 -1140 
Q 1353 -1331 966 -1331 
L 506 -1331 
L 506 -850 
L 844 -850 
Q 1081 -850 1212 -737 
Q 1344 -625 1503 -206 
L 1606 56 
L 191 3500 
L 800 3500 
L 1894 763 
L 2988 3500 
L 3597 3500 
L 2059 -325 
z
" id="DejaVuSans-443" transform="scale(0.015625)"/>
       <path d="M 2625 0 
L 2625 1472 
L 1553 1472 
Q 1075 1472 756 1769 
Q 469 2038 469 2613 
L 469 3500 
L 1044 3500 
L 1044 2666 
Q 1044 2300 1206 2116 
Q 1372 1931 1697 1931 
L 2625 1931 
L 2625 3500 
L 3200 3500 
L 3200 0 
L 2625 0 
z
" id="DejaVuSans-447" transform="scale(0.015625)"/>
       <path d="M 313 2009 
L 1997 2009 
L 1997 1497 
L 313 1497 
L 313 2009 
z
" id="DejaVuSans-2d" transform="scale(0.015625)"/>
       <path d="M 238 0 
L 238 478 
Q 806 566 981 959 
Q 1194 1513 1194 2928 
L 1194 3500 
L 3559 3500 
L 3559 0 
L 2984 0 
L 2984 3041 
L 1769 3041 
L 1769 2694 
Q 1769 1344 1494 738 
Q 1200 91 238 0 
z
" id="DejaVuSans-43b" transform="scale(0.015625)"/>
       <path d="M 2781 1038 
Q 2781 1319 2576 1466 
Q 2372 1613 1978 1613 
L 1159 1613 
L 1159 459 
L 1978 459 
Q 2372 459 2576 607 
Q 2781 756 2781 1038 
z
M 581 3500 
L 1159 3500 
L 1159 2072 
L 2003 2072 
Q 2672 2072 3033 1817 
Q 3394 1563 3394 1038 
Q 3394 513 3033 256 
Q 2672 0 2003 0 
L 581 0 
L 581 3500 
z
" id="DejaVuSans-44c" transform="scale(0.015625)"/>
       <path d="M 1991 3584 
Q 2741 3584 3169 3096 
Q 3597 2609 3597 1747 
Q 3597 888 3169 398 
Q 2741 -91 1991 -91 
Q 1238 -91 822 384 
Q 406 859 384 1747 
L 366 2463 
Q 350 2834 350 2963 
Q 350 3463 531 3831 
Q 816 4409 1308 4659 
Q 1800 4909 2625 4916 
Q 3006 4919 3175 4972 
L 3334 4516 
Q 3181 4453 3041 4450 
L 2259 4397 
Q 1866 4369 1628 4231 
Q 1006 3866 947 3388 
L 925 3213 
Q 1331 3584 1991 3584 
z
M 1991 3097 
Q 1528 3097 1259 2736 
Q 991 2375 991 1747 
Q 991 1119 1258 758 
Q 1525 397 1991 397 
Q 2450 397 2719 759 
Q 2988 1122 2988 1747 
Q 2988 2369 2719 2733 
Q 2450 3097 1991 3097 
z
" id="DejaVuSans-431" transform="scale(0.015625)"/>
       <path d="M 1828 4750 
Q 2597 4750 3084 4423 
Q 3572 4097 3572 3541 
Q 3572 3153 3350 2886 
Q 3128 2619 2719 2516 
Q 3172 2419 3426 2112 
Q 3681 1806 3681 1356 
Q 3681 638 3126 273 
Q 2572 -91 1828 -91 
Q 1447 -91 1003 12 
Q 559 116 422 203 
L 422 853 
Q 900 575 1164 508 
Q 1428 441 1816 441 
Q 2403 441 2728 666 
Q 3053 891 3053 1356 
Q 3053 1769 2764 2001 
Q 2475 2234 1866 2234 
L 1228 2234 
L 1228 2753 
L 1891 2753 
Q 2450 2753 2697 2939 
Q 2944 3125 2944 3475 
Q 2944 3834 2689 4026 
Q 2434 4219 1816 4219 
Q 1397 4219 1253 4181 
Q 1109 4144 469 3903 
L 469 4519 
Q 822 4644 1190 4697 
Q 1559 4750 1828 4750 
z
" id="DejaVuSans-417" transform="scale(0.015625)"/>
       <path d="M 3603 0 
L 581 0 
L 581 3500 
L 1159 3500 
L 1159 459 
L 3025 459 
L 3025 3500 
L 3603 3500 
L 3603 459 
L 4063 459 
L 4063 -884 
L 3603 -884 
L 3603 0 
z
" id="DejaVuSans-446" transform="scale(0.015625)"/>
       <path d="M 3578 3500 
L 3578 0 
L 3006 0 
L 3006 2809 
L 1319 0 
L 581 0 
L 581 3500 
L 1153 3500 
L 1153 697 
L 2838 3500 
L 3578 3500 
z
M 1102 4833 
L 1471 4833 
Q 1505 4599 1656 4481 
Q 1808 4364 2080 4364 
Q 2349 4364 2499 4480 
Q 2649 4596 2689 4833 
L 3058 4833 
Q 3027 4386 2780 4161 
Q 2533 3936 2080 3936 
Q 1627 3936 1380 4161 
Q 1133 4386 1102 4833 
z
" id="DejaVuSans-439" transform="scale(0.015625)"/>
       <path d="M 3263 -1063 
L 3263 -1509 
L -63 -1509 
L -63 -1063 
L 3263 -1063 
z
" id="DejaVuSans-5f" transform="scale(0.015625)"/>
       <path d="M 2059 -325 
Q 1816 -950 1584 -1140 
Q 1353 -1331 966 -1331 
L 506 -1331 
L 506 -850 
L 844 -850 
Q 1081 -850 1212 -737 
Q 1344 -625 1503 -206 
L 1606 56 
L 191 3500 
L 800 3500 
L 1894 763 
L 2988 3500 
L 3597 3500 
L 2059 -325 
z
" id="DejaVuSans-79" transform="scale(0.015625)"/>
      </defs>
      <use xlink:href="#DejaVuSans-41f"/>
      <use x="75.195312" xlink:href="#DejaVuSans-440"/>
      <use x="138.671875" xlink:href="#DejaVuSans-43e"/>
      <use x="199.853516" xlink:href="#DejaVuSans-438"/>
      <use x="264.84375" xlink:href="#DejaVuSans-437"/>
      <use x="318.017578" xlink:href="#DejaVuSans-432"/>
      <use x="376.953125" xlink:href="#DejaVuSans-43e"/>
      <use x="438.134766" xlink:href="#DejaVuSans-434"/>
      <use x="507.275391" xlink:href="#DejaVuSans-441"/>
      <use x="562.255859" xlink:href="#DejaVuSans-442"/>
      <use x="620.507812" xlink:href="#DejaVuSans-432"/>
      <use x="679.443359" xlink:href="#DejaVuSans-435"/>
      <use x="740.966797" xlink:href="#DejaVuSans-43d"/>
      <use x="806.347656" xlink:href="#DejaVuSans-43d"/>
      <use x="871.728516" xlink:href="#DejaVuSans-430"/>
      <use x="933.007812" xlink:href="#DejaVuSans-44f"/>
      <use x="993.164062" xlink:href="#DejaVuSans-20"/>
      <use x="1024.951172" xlink:href="#DejaVuSans-43f"/>
      <use x="1090.332031" xlink:href="#DejaVuSans-440"/>
      <use x="1153.808594" xlink:href="#DejaVuSans-430"/>
      <use x="1215.087891" xlink:href="#DejaVuSans-43a"/>
      <use x="1275.488281" xlink:href="#DejaVuSans-442"/>
      <use x="1333.740234" xlink:href="#DejaVuSans-438"/>
      <use x="1398.730469" xlink:href="#DejaVuSans-43a"/>
      <use x="1459.130859" xlink:href="#DejaVuSans-430"/>
      <use x="1520.410156" xlink:href="#DejaVuSans-2c"/>
      <use x="1552.197266" xlink:href="#DejaVuSans-20"/>
      <use x="1583.984375" xlink:href="#DejaVuSans-43d"/>
      <use x="1649.365234" xlink:href="#DejaVuSans-430"/>
      <use x="1710.644531" xlink:href="#DejaVuSans-443"/>
      <use x="1769.824219" xlink:href="#DejaVuSans-447"/>
      <use x="1828.90625" xlink:href="#DejaVuSans-43d"/>
      <use x="1894.287109" xlink:href="#DejaVuSans-43e"/>
      <use x="1955.46875" xlink:href="#DejaVuSans-2d"/>
      <use x="1991.552734" xlink:href="#DejaVuSans-438"/>
      <use x="2056.542969" xlink:href="#DejaVuSans-441"/>
      <use x="2111.523438" xlink:href="#DejaVuSans-441"/>
      <use x="2166.503906" xlink:href="#DejaVuSans-43b"/>
      <use x="2230.419922" xlink:href="#DejaVuSans-435"/>
      <use x="2291.943359" xlink:href="#DejaVuSans-434"/>
      <use x="2361.083984" xlink:href="#DejaVuSans-43e"/>
      <use x="2422.265625" xlink:href="#DejaVuSans-432"/>
      <use x="2481.201172" xlink:href="#DejaVuSans-430"/>
      <use x="2542.480469" xlink:href="#DejaVuSans-442"/>
      <use x="2600.732422" xlink:href="#DejaVuSans-435"/>
      <use x="2662.255859" xlink:href="#DejaVuSans-43b"/>
      <use x="2726.171875" xlink:href="#DejaVuSans-44c"/>
      <use x="2785.107422" xlink:href="#DejaVuSans-441"/>
      <use x="2840.087891" xlink:href="#DejaVuSans-43a"/>
      <use x="2900.488281" xlink:href="#DejaVuSans-430"/>
      <use x="2961.767578" xlink:href="#DejaVuSans-44f"/>
      <use x="3021.923828" xlink:href="#DejaVuSans-20"/>
      <use x="3053.710938" xlink:href="#DejaVuSans-440"/>
      <use x="3117.1875" xlink:href="#DejaVuSans-430"/>
      <use x="3178.466797" xlink:href="#DejaVuSans-431"/>
      <use x="3240.136719" xlink:href="#DejaVuSans-43e"/>
      <use x="3301.318359" xlink:href="#DejaVuSans-442"/>
      <use x="3359.570312" xlink:href="#DejaVuSans-430"/>
      <use x="3420.849609" xlink:href="#DejaVuSans-20"/>
      <use x="3452.636719" xlink:href="#DejaVuSans-417"/>
      <use x="3516.748047" xlink:href="#DejaVuSans-430"/>
      <use x="3578.027344" xlink:href="#DejaVuSans-447"/>
      <use x="3637.109375" xlink:href="#DejaVuSans-435"/>
      <use x="3698.632812" xlink:href="#DejaVuSans-442"/>
      <use x="3756.884766" xlink:href="#DejaVuSans-20"/>
      <use x="3788.671875" xlink:href="#DejaVuSans-441"/>
      <use x="3843.652344" xlink:href="#DejaVuSans-20"/>
      <use x="3875.439453" xlink:href="#DejaVuSans-43e"/>
      <use x="3936.621094" xlink:href="#DejaVuSans-446"/>
      <use x="4004.6875" xlink:href="#DejaVuSans-435"/>
      <use x="4066.210938" xlink:href="#DejaVuSans-43d"/>
      <use x="4131.591797" xlink:href="#DejaVuSans-43a"/>
      <use x="4191.992188" xlink:href="#DejaVuSans-43e"/>
      <use x="4253.173828" xlink:href="#DejaVuSans-439"/>
      <use x="4318.164062" xlink:href="#DejaVuSans-5f"/>
      <use x="4368.164062" xlink:href="#DejaVuSans-79"/>
     </g>
    </g>
   </g>
   <g id="matplotlib.axis_2">
    <g id="ytick_1">
     <g id="line2d_7">
      <defs>
       <path d="M 0 0 
L -3.5 0 
" id="m76bdaea46d" style="stroke:#000000;stroke-width:0.8;"/>
      </defs>
      <g>
       <use style="stroke:#000000;stroke-width:0.8;" x="117.058594" xlink:href="#m76bdaea46d" y="241.69375"/>
      </g>
     </g>
     <g id="text_8">
      <!-- 0.0 -->
      <g transform="translate(94.155469 245.492969)scale(0.1 -0.1)">
       <defs>
        <path d="M 684 794 
L 1344 794 
L 1344 0 
L 684 0 
L 684 794 
z
" id="DejaVuSans-2e" transform="scale(0.015625)"/>
       </defs>
       <use xlink:href="#DejaVuSans-30"/>
       <use x="63.623047" xlink:href="#DejaVuSans-2e"/>
       <use x="95.410156" xlink:href="#DejaVuSans-30"/>
      </g>
     </g>
    </g>
    <g id="ytick_2">
     <g id="line2d_8">
      <g>
       <use style="stroke:#000000;stroke-width:0.8;" x="117.058594" xlink:href="#m76bdaea46d" y="210.676058"/>
      </g>
     </g>
     <g id="text_9">
      <!-- 2.5 -->
      <g transform="translate(94.155469 214.475277)scale(0.1 -0.1)">
       <defs>
        <path d="M 691 4666 
L 3169 4666 
L 3169 4134 
L 1269 4134 
L 1269 2991 
Q 1406 3038 1543 3061 
Q 1681 3084 1819 3084 
Q 2600 3084 3056 2656 
Q 3513 2228 3513 1497 
Q 3513 744 3044 326 
Q 2575 -91 1722 -91 
Q 1428 -91 1123 -41 
Q 819 9 494 109 
L 494 744 
Q 775 591 1075 516 
Q 1375 441 1709 441 
Q 2250 441 2565 725 
Q 2881 1009 2881 1497 
Q 2881 1984 2565 2268 
Q 2250 2553 1709 2553 
Q 1456 2553 1204 2497 
Q 953 2441 691 2322 
L 691 4666 
z
" id="DejaVuSans-35" transform="scale(0.015625)"/>
       </defs>
       <use xlink:href="#DejaVuSans-32"/>
       <use x="63.623047" xlink:href="#DejaVuSans-2e"/>
       <use x="95.410156" xlink:href="#DejaVuSans-35"/>
      </g>
     </g>
    </g>
    <g id="ytick_3">
     <g id="line2d_9">
      <g>
       <use style="stroke:#000000;stroke-width:0.8;" x="117.058594" xlink:href="#m76bdaea46d" y="179.658366"/>
      </g>
     </g>
     <g id="text_10">
      <!-- 5.0 -->
      <g transform="translate(94.155469 183.457585)scale(0.1 -0.1)">
       <use xlink:href="#DejaVuSans-35"/>
       <use x="63.623047" xlink:href="#DejaVuSans-2e"/>
       <use x="95.410156" xlink:href="#DejaVuSans-30"/>
      </g>
     </g>
    </g>
    <g id="ytick_4">
     <g id="line2d_10">
      <g>
       <use style="stroke:#000000;stroke-width:0.8;" x="117.058594" xlink:href="#m76bdaea46d" y="148.640675"/>
      </g>
     </g>
     <g id="text_11">
      <!-- 7.5 -->
      <g transform="translate(94.155469 152.439893)scale(0.1 -0.1)">
       <defs>
        <path d="M 525 4666 
L 3525 4666 
L 3525 4397 
L 1831 0 
L 1172 0 
L 2766 4134 
L 525 4134 
L 525 4666 
z
" id="DejaVuSans-37" transform="scale(0.015625)"/>
       </defs>
       <use xlink:href="#DejaVuSans-37"/>
       <use x="63.623047" xlink:href="#DejaVuSans-2e"/>
       <use x="95.410156" xlink:href="#DejaVuSans-35"/>
      </g>
     </g>
    </g>
    <g id="ytick_5">
     <g id="line2d_11">
      <g>
       <use style="stroke:#000000;stroke-width:0.8;" x="117.058594" xlink:href="#m76bdaea46d" y="117.622983"/>
      </g>
     </g>
     <g id="text_12">
      <!-- 10.0 -->
      <g transform="translate(87.792969 121.422202)scale(0.1 -0.1)">
       <use xlink:href="#DejaVuSans-31"/>
       <use x="63.623047" xlink:href="#DejaVuSans-30"/>
       <use x="127.246094" xlink:href="#DejaVuSans-2e"/>
       <use x="159.033203" xlink:href="#DejaVuSans-30"/>
      </g>
     </g>
    </g>
    <g id="ytick_6">
     <g id="line2d_12">
      <g>
       <use style="stroke:#000000;stroke-width:0.8;" x="117.058594" xlink:href="#m76bdaea46d" y="86.605291"/>
      </g>
     </g>
     <g id="text_13">
      <!-- 12.5 -->
      <g transform="translate(87.792969 90.40451)scale(0.1 -0.1)">
       <use xlink:href="#DejaVuSans-31"/>
       <use x="63.623047" xlink:href="#DejaVuSans-32"/>
       <use x="127.246094" xlink:href="#DejaVuSans-2e"/>
       <use x="159.033203" xlink:href="#DejaVuSans-35"/>
      </g>
     </g>
    </g>
    <g id="ytick_7">
     <g id="line2d_13">
      <g>
       <use style="stroke:#000000;stroke-width:0.8;" x="117.058594" xlink:href="#m76bdaea46d" y="55.587599"/>
      </g>
     </g>
     <g id="text_14">
      <!-- 15.0 -->
      <g transform="translate(87.792969 59.386818)scale(0.1 -0.1)">
       <use xlink:href="#DejaVuSans-31"/>
       <use x="63.623047" xlink:href="#DejaVuSans-35"/>
       <use x="127.246094" xlink:href="#DejaVuSans-2e"/>
       <use x="159.033203" xlink:href="#DejaVuSans-30"/>
      </g>
     </g>
    </g>
    <g id="ytick_8">
     <g id="line2d_14">
      <g>
       <use style="stroke:#000000;stroke-width:0.8;" x="117.058594" xlink:href="#m76bdaea46d" y="24.569907"/>
      </g>
     </g>
     <g id="text_15">
      <!-- 17.5 -->
      <g transform="translate(87.792969 28.369126)scale(0.1 -0.1)">
       <use xlink:href="#DejaVuSans-31"/>
       <use x="63.623047" xlink:href="#DejaVuSans-37"/>
       <use x="127.246094" xlink:href="#DejaVuSans-2e"/>
       <use x="159.033203" xlink:href="#DejaVuSans-35"/>
      </g>
     </g>
    </g>
    <g id="text_16">
     <!-- Count -->
     <g transform="translate(81.713281 139.295312)rotate(-90)scale(0.1 -0.1)">
      <defs>
       <path d="M 4122 4306 
L 4122 3641 
Q 3803 3938 3442 4084 
Q 3081 4231 2675 4231 
Q 1875 4231 1450 3742 
Q 1025 3253 1025 2328 
Q 1025 1406 1450 917 
Q 1875 428 2675 428 
Q 3081 428 3442 575 
Q 3803 722 4122 1019 
L 4122 359 
Q 3791 134 3420 21 
Q 3050 -91 2638 -91 
Q 1578 -91 968 557 
Q 359 1206 359 2328 
Q 359 3453 968 4101 
Q 1578 4750 2638 4750 
Q 3056 4750 3426 4639 
Q 3797 4528 4122 4306 
z
" id="DejaVuSans-43" transform="scale(0.015625)"/>
       <path d="M 1959 3097 
Q 1497 3097 1228 2736 
Q 959 2375 959 1747 
Q 959 1119 1226 758 
Q 1494 397 1959 397 
Q 2419 397 2687 759 
Q 2956 1122 2956 1747 
Q 2956 2369 2687 2733 
Q 2419 3097 1959 3097 
z
M 1959 3584 
Q 2709 3584 3137 3096 
Q 3566 2609 3566 1747 
Q 3566 888 3137 398 
Q 2709 -91 1959 -91 
Q 1206 -91 779 398 
Q 353 888 353 1747 
Q 353 2609 779 3096 
Q 1206 3584 1959 3584 
z
" id="DejaVuSans-6f" transform="scale(0.015625)"/>
       <path d="M 544 1381 
L 544 3500 
L 1119 3500 
L 1119 1403 
Q 1119 906 1312 657 
Q 1506 409 1894 409 
Q 2359 409 2629 706 
Q 2900 1003 2900 1516 
L 2900 3500 
L 3475 3500 
L 3475 0 
L 2900 0 
L 2900 538 
Q 2691 219 2414 64 
Q 2138 -91 1772 -91 
Q 1169 -91 856 284 
Q 544 659 544 1381 
z
M 1991 3584 
L 1991 3584 
z
" id="DejaVuSans-75" transform="scale(0.015625)"/>
       <path d="M 3513 2113 
L 3513 0 
L 2938 0 
L 2938 2094 
Q 2938 2591 2744 2837 
Q 2550 3084 2163 3084 
Q 1697 3084 1428 2787 
Q 1159 2491 1159 1978 
L 1159 0 
L 581 0 
L 581 3500 
L 1159 3500 
L 1159 2956 
Q 1366 3272 1645 3428 
Q 1925 3584 2291 3584 
Q 2894 3584 3203 3211 
Q 3513 2838 3513 2113 
z
" id="DejaVuSans-6e" transform="scale(0.015625)"/>
       <path d="M 1172 4494 
L 1172 3500 
L 2356 3500 
L 2356 3053 
L 1172 3053 
L 1172 1153 
Q 1172 725 1289 603 
Q 1406 481 1766 481 
L 2356 481 
L 2356 0 
L 1766 0 
Q 1100 0 847 248 
Q 594 497 594 1153 
L 594 3053 
L 172 3053 
L 172 3500 
L 594 3500 
L 594 4494 
L 1172 4494 
z
" id="DejaVuSans-74" transform="scale(0.015625)"/>
      </defs>
      <use xlink:href="#DejaVuSans-43"/>
      <use x="69.824219" xlink:href="#DejaVuSans-6f"/>
      <use x="131.005859" xlink:href="#DejaVuSans-75"/>
      <use x="194.384766" xlink:href="#DejaVuSans-6e"/>
      <use x="257.763672" xlink:href="#DejaVuSans-74"/>
     </g>
    </g>
   </g>
   <g id="line2d_15">
    <path clip-path="url(#p93a321eb15)" d="M 127.196094 224.928269 
L 132.290315 225.037892 
L 137.384536 225.372528 
L 142.478757 225.916869 
L 148.591822 226.812518 
L 155.723732 228.120815 
L 164.89333 230.056494 
L 180.175993 233.310101 
L 187.307903 234.604536 
L 193.420968 235.514894 
L 199.534033 236.203272 
L 205.647099 236.644216 
L 210.74132 236.810694 
L 215.835541 236.788812 
L 220.929762 236.576845 
L 226.023983 236.176125 
L 232.137049 235.452287 
L 238.250114 234.475906 
L 244.363179 233.266749 
L 251.495089 231.599037 
L 259.645842 229.427773 
L 272.890817 225.599257 
L 283.07926 222.759458 
L 289.192325 221.257272 
L 295.30539 219.996181 
L 300.399611 219.177228 
L 305.493832 218.603243 
L 310.588054 218.297958 
L 314.66343 218.257144 
L 318.738807 218.40018 
L 322.814184 218.725162 
L 327.908405 219.377229 
L 329.946094 219.710324 
L 329.946094 219.710324 
" style="fill:none;stroke:#008000;stroke-linecap:square;stroke-width:1.5;"/>
   </g>
   <g id="patch_28">
    <path d="M 117.058594 241.69375 
L 117.058594 7.2 
" style="fill:none;stroke:#000000;stroke-linecap:square;stroke-linejoin:miter;stroke-width:0.8;"/>
   </g>
   <g id="patch_29">
    <path d="M 117.058594 241.69375 
L 340.083594 241.69375 
" style="fill:none;stroke:#000000;stroke-linecap:square;stroke-linejoin:miter;stroke-width:0.8;"/>
   </g>
   <g id="text_17">
    <!-- Среднее арифметическое: 54.577777777777776 -->
    <g transform="translate(340.083594 30.649375)scale(0.09 -0.09)">
     <defs>
      <path d="M 4122 4306 
L 4122 3641 
Q 3803 3938 3442 4084 
Q 3081 4231 2675 4231 
Q 1875 4231 1450 3742 
Q 1025 3253 1025 2328 
Q 1025 1406 1450 917 
Q 1875 428 2675 428 
Q 3081 428 3442 575 
Q 3803 722 4122 1019 
L 4122 359 
Q 3791 134 3420 21 
Q 3050 -91 2638 -91 
Q 1578 -91 968 557 
Q 359 1206 359 2328 
Q 359 3453 968 4101 
Q 1578 4750 2638 4750 
Q 3056 4750 3426 4639 
Q 3797 4528 4122 4306 
z
" id="DejaVuSans-421" transform="scale(0.015625)"/>
      <path d="M 947 1747 
Q 947 1013 1173 702 
Q 1400 391 1784 391 
Q 2091 391 2447 916 
L 2447 2578 
Q 2091 3103 1784 3103 
Q 1400 3103 1173 2792 
Q 947 2481 947 1747 
z
M 2447 -1331 
L 2447 447 
Q 2269 153 2064 31 
Q 1859 -91 1600 -91 
Q 1078 -91 714 392 
Q 350 875 350 1734 
Q 350 2594 714 3089 
Q 1078 3584 1600 3584 
Q 1859 3584 2064 3465 
Q 2269 3347 2447 3053 
L 2447 4666 
L 3025 4666 
L 3025 3053 
Q 3203 3347 3408 3465 
Q 3613 3584 3872 3584 
Q 4394 3584 4758 3089 
Q 5122 2594 5122 1734 
Q 5122 875 4758 392 
Q 4394 -91 3872 -91 
Q 3613 -91 3408 31 
Q 3203 153 3025 447 
L 3025 -1331 
L 2447 -1331 
z
M 4525 1747 
Q 4525 2481 4298 2792 
Q 4072 3103 3688 3103 
Q 3381 3103 3025 2578 
L 3025 916 
Q 3381 391 3688 391 
Q 4072 391 4298 702 
Q 4525 1013 4525 1747 
z
" id="DejaVuSans-444" transform="scale(0.015625)"/>
      <path d="M 581 3500 
L 1422 3500 
L 2416 1156 
L 3413 3500 
L 4247 3500 
L 4247 0 
L 3669 0 
L 3669 2950 
L 2703 672 
L 2128 672 
L 1159 2950 
L 1159 0 
L 581 0 
L 581 3500 
z
" id="DejaVuSans-43c" transform="scale(0.015625)"/>
      <path d="M 750 794 
L 1409 794 
L 1409 0 
L 750 0 
L 750 794 
z
M 750 3309 
L 1409 3309 
L 1409 2516 
L 750 2516 
L 750 3309 
z
" id="DejaVuSans-3a" transform="scale(0.015625)"/>
     </defs>
     <use xlink:href="#DejaVuSans-421"/>
     <use x="69.824219" xlink:href="#DejaVuSans-440"/>
     <use x="133.300781" xlink:href="#DejaVuSans-435"/>
     <use x="194.824219" xlink:href="#DejaVuSans-434"/>
     <use x="263.964844" xlink:href="#DejaVuSans-43d"/>
     <use x="329.345703" xlink:href="#DejaVuSans-435"/>
     <use x="390.869141" xlink:href="#DejaVuSans-435"/>
     <use x="452.392578" xlink:href="#DejaVuSans-20"/>
     <use x="484.179688" xlink:href="#DejaVuSans-430"/>
     <use x="545.458984" xlink:href="#DejaVuSans-440"/>
     <use x="608.935547" xlink:href="#DejaVuSans-438"/>
     <use x="673.925781" xlink:href="#DejaVuSans-444"/>
     <use x="759.423828" xlink:href="#DejaVuSans-43c"/>
     <use x="834.863281" xlink:href="#DejaVuSans-435"/>
     <use x="896.386719" xlink:href="#DejaVuSans-442"/>
     <use x="954.638672" xlink:href="#DejaVuSans-438"/>
     <use x="1019.628906" xlink:href="#DejaVuSans-447"/>
     <use x="1078.710938" xlink:href="#DejaVuSans-435"/>
     <use x="1140.234375" xlink:href="#DejaVuSans-441"/>
     <use x="1195.214844" xlink:href="#DejaVuSans-43a"/>
     <use x="1255.615234" xlink:href="#DejaVuSans-43e"/>
     <use x="1316.796875" xlink:href="#DejaVuSans-435"/>
     <use x="1378.320312" xlink:href="#DejaVuSans-3a"/>
     <use x="1412.011719" xlink:href="#DejaVuSans-20"/>
     <use x="1443.798828" xlink:href="#DejaVuSans-35"/>
     <use x="1507.421875" xlink:href="#DejaVuSans-34"/>
     <use x="1571.044922" xlink:href="#DejaVuSans-2e"/>
     <use x="1602.832031" xlink:href="#DejaVuSans-35"/>
     <use x="1666.455078" xlink:href="#DejaVuSans-37"/>
     <use x="1730.078125" xlink:href="#DejaVuSans-37"/>
     <use x="1793.701172" xlink:href="#DejaVuSans-37"/>
     <use x="1857.324219" xlink:href="#DejaVuSans-37"/>
     <use x="1920.947266" xlink:href="#DejaVuSans-37"/>
     <use x="1984.570312" xlink:href="#DejaVuSans-37"/>
     <use x="2048.193359" xlink:href="#DejaVuSans-37"/>
     <use x="2111.816406" xlink:href="#DejaVuSans-37"/>
     <use x="2175.439453" xlink:href="#DejaVuSans-37"/>
     <use x="2239.0625" xlink:href="#DejaVuSans-37"/>
     <use x="2302.685547" xlink:href="#DejaVuSans-37"/>
     <use x="2366.308594" xlink:href="#DejaVuSans-37"/>
     <use x="2429.931641" xlink:href="#DejaVuSans-37"/>
     <use x="2493.554688" xlink:href="#DejaVuSans-36"/>
    </g>
   </g>
   <g id="text_18">
    <!-- Медиана: 91.0 -->
    <g transform="translate(340.083594 42.374062)scale(0.09 -0.09)">
     <defs>
      <path d="M 628 4666 
L 1569 4666 
L 2759 1491 
L 3956 4666 
L 4897 4666 
L 4897 0 
L 4281 0 
L 4281 4097 
L 3078 897 
L 2444 897 
L 1241 4097 
L 1241 0 
L 628 0 
L 628 4666 
z
" id="DejaVuSans-41c" transform="scale(0.015625)"/>
      <path d="M 703 97 
L 703 672 
Q 941 559 1184 500 
Q 1428 441 1663 441 
Q 2288 441 2617 861 
Q 2947 1281 2994 2138 
Q 2813 1869 2534 1725 
Q 2256 1581 1919 1581 
Q 1219 1581 811 2004 
Q 403 2428 403 3163 
Q 403 3881 828 4315 
Q 1253 4750 1959 4750 
Q 2769 4750 3195 4129 
Q 3622 3509 3622 2328 
Q 3622 1225 3098 567 
Q 2575 -91 1691 -91 
Q 1453 -91 1209 -44 
Q 966 3 703 97 
z
M 1959 2075 
Q 2384 2075 2632 2365 
Q 2881 2656 2881 3163 
Q 2881 3666 2632 3958 
Q 2384 4250 1959 4250 
Q 1534 4250 1286 3958 
Q 1038 3666 1038 3163 
Q 1038 2656 1286 2365 
Q 1534 2075 1959 2075 
z
" id="DejaVuSans-39" transform="scale(0.015625)"/>
     </defs>
     <use xlink:href="#DejaVuSans-41c"/>
     <use x="86.279297" xlink:href="#DejaVuSans-435"/>
     <use x="147.802734" xlink:href="#DejaVuSans-434"/>
     <use x="216.943359" xlink:href="#DejaVuSans-438"/>
     <use x="281.933594" xlink:href="#DejaVuSans-430"/>
     <use x="343.212891" xlink:href="#DejaVuSans-43d"/>
     <use x="408.59375" xlink:href="#DejaVuSans-430"/>
     <use x="469.873047" xlink:href="#DejaVuSans-3a"/>
     <use x="503.564453" xlink:href="#DejaVuSans-20"/>
     <use x="535.351562" xlink:href="#DejaVuSans-39"/>
     <use x="598.974609" xlink:href="#DejaVuSans-31"/>
     <use x="662.597656" xlink:href="#DejaVuSans-2e"/>
     <use x="694.384766" xlink:href="#DejaVuSans-30"/>
    </g>
   </g>
   <g id="text_19">
    <!-- Мода: [0] -->
    <g transform="translate(340.083594 54.09875)scale(0.09 -0.09)">
     <defs>
      <path d="M 550 4863 
L 1875 4863 
L 1875 4416 
L 1125 4416 
L 1125 -397 
L 1875 -397 
L 1875 -844 
L 550 -844 
L 550 4863 
z
" id="DejaVuSans-5b" transform="scale(0.015625)"/>
      <path d="M 1947 4863 
L 1947 -844 
L 622 -844 
L 622 -397 
L 1369 -397 
L 1369 4416 
L 622 4416 
L 622 4863 
L 1947 4863 
z
" id="DejaVuSans-5d" transform="scale(0.015625)"/>
     </defs>
     <use xlink:href="#DejaVuSans-41c"/>
     <use x="86.279297" xlink:href="#DejaVuSans-43e"/>
     <use x="147.460938" xlink:href="#DejaVuSans-434"/>
     <use x="216.601562" xlink:href="#DejaVuSans-430"/>
     <use x="277.880859" xlink:href="#DejaVuSans-3a"/>
     <use x="311.572266" xlink:href="#DejaVuSans-20"/>
     <use x="343.359375" xlink:href="#DejaVuSans-5b"/>
     <use x="382.373047" xlink:href="#DejaVuSans-30"/>
     <use x="445.996094" xlink:href="#DejaVuSans-5d"/>
    </g>
   </g>
   <g id="text_20">
    <!-- Среднее геометрическое: 0.0 -->
    <g transform="translate(340.083594 65.823437)scale(0.09 -0.09)">
     <defs>
      <path d="M 581 0 
L 581 3500 
L 3050 3500 
L 3050 3041 
L 1159 3041 
L 1159 0 
L 581 0 
z
" id="DejaVuSans-433" transform="scale(0.015625)"/>
     </defs>
     <use xlink:href="#DejaVuSans-421"/>
     <use x="69.824219" xlink:href="#DejaVuSans-440"/>
     <use x="133.300781" xlink:href="#DejaVuSans-435"/>
     <use x="194.824219" xlink:href="#DejaVuSans-434"/>
     <use x="263.964844" xlink:href="#DejaVuSans-43d"/>
     <use x="329.345703" xlink:href="#DejaVuSans-435"/>
     <use x="390.869141" xlink:href="#DejaVuSans-435"/>
     <use x="452.392578" xlink:href="#DejaVuSans-20"/>
     <use x="484.179688" xlink:href="#DejaVuSans-433"/>
     <use x="536.71875" xlink:href="#DejaVuSans-435"/>
     <use x="598.242188" xlink:href="#DejaVuSans-43e"/>
     <use x="659.423828" xlink:href="#DejaVuSans-43c"/>
     <use x="734.863281" xlink:href="#DejaVuSans-435"/>
     <use x="796.386719" xlink:href="#DejaVuSans-442"/>
     <use x="854.638672" xlink:href="#DejaVuSans-440"/>
     <use x="918.115234" xlink:href="#DejaVuSans-438"/>
     <use x="983.105469" xlink:href="#DejaVuSans-447"/>
     <use x="1042.1875" xlink:href="#DejaVuSans-435"/>
     <use x="1103.710938" xlink:href="#DejaVuSans-441"/>
     <use x="1158.691406" xlink:href="#DejaVuSans-43a"/>
     <use x="1219.091797" xlink:href="#DejaVuSans-43e"/>
     <use x="1280.273438" xlink:href="#DejaVuSans-435"/>
     <use x="1341.796875" xlink:href="#DejaVuSans-3a"/>
     <use x="1375.488281" xlink:href="#DejaVuSans-20"/>
     <use x="1407.275391" xlink:href="#DejaVuSans-30"/>
     <use x="1470.898438" xlink:href="#DejaVuSans-2e"/>
     <use x="1502.685547" xlink:href="#DejaVuSans-30"/>
    </g>
   </g>
   <g id="text_21">
    <!-- Размах: 100 -->
    <g transform="translate(340.083594 77.548125)scale(0.09 -0.09)">
     <defs>
      <path d="M 1259 4147 
L 1259 2394 
L 2053 2394 
Q 2494 2394 2734 2622 
Q 2975 2850 2975 3272 
Q 2975 3691 2734 3919 
Q 2494 4147 2053 4147 
L 1259 4147 
z
M 628 4666 
L 2053 4666 
Q 2838 4666 3239 4311 
Q 3641 3956 3641 3272 
Q 3641 2581 3239 2228 
Q 2838 1875 2053 1875 
L 1259 1875 
L 1259 0 
L 628 0 
L 628 4666 
z
" id="DejaVuSans-420" transform="scale(0.015625)"/>
      <path d="M 3513 3500 
L 2247 1797 
L 3578 0 
L 2900 0 
L 1881 1375 
L 863 0 
L 184 0 
L 1544 1831 
L 300 3500 
L 978 3500 
L 1906 2253 
L 2834 3500 
L 3513 3500 
z
" id="DejaVuSans-445" transform="scale(0.015625)"/>
     </defs>
     <use xlink:href="#DejaVuSans-420"/>
     <use x="60.302734" xlink:href="#DejaVuSans-430"/>
     <use x="121.582031" xlink:href="#DejaVuSans-437"/>
     <use x="174.755859" xlink:href="#DejaVuSans-43c"/>
     <use x="250.195312" xlink:href="#DejaVuSans-430"/>
     <use x="311.474609" xlink:href="#DejaVuSans-445"/>
     <use x="370.654297" xlink:href="#DejaVuSans-3a"/>
     <use x="404.345703" xlink:href="#DejaVuSans-20"/>
     <use x="436.132812" xlink:href="#DejaVuSans-31"/>
     <use x="499.755859" xlink:href="#DejaVuSans-30"/>
     <use x="563.378906" xlink:href="#DejaVuSans-30"/>
    </g>
   </g>
   <g id="text_22">
    <!-- Межквартальный размах: 93.0 -->
    <g transform="translate(340.083594 89.272812)scale(0.09 -0.09)">
     <defs>
      <path d="M 2597 3500 
L 3169 3500 
L 3169 1856 
L 4697 3500 
L 5366 3500 
L 4109 2153 
L 5547 0 
L 4931 0 
L 3753 1769 
L 3169 1141 
L 3169 0 
L 2597 0 
L 2597 1141 
L 2013 1769 
L 834 0 
L 219 0 
L 1656 2153 
L 400 3500 
L 1069 3500 
L 2597 1856 
L 2597 3500 
z
" id="DejaVuSans-436" transform="scale(0.015625)"/>
      <path d="M 3907 3500 
L 4482 3500 
L 4482 0 
L 3907 0 
L 3907 3500 
z
M 4195 3584 
L 4195 3584 
z
M 2781 1038 
Q 2781 1319 2576 1466 
Q 2372 1613 1978 1613 
L 1159 1613 
L 1159 459 
L 1978 459 
Q 2372 459 2576 607 
Q 2781 756 2781 1038 
z
M 581 3500 
L 1159 3500 
L 1159 2072 
L 2003 2072 
Q 2672 2072 3033 1817 
Q 3394 1563 3394 1038 
Q 3394 513 3033 256 
Q 2672 0 2003 0 
L 581 0 
L 581 3500 
z
" id="DejaVuSans-44b" transform="scale(0.015625)"/>
      <path d="M 2597 2516 
Q 3050 2419 3304 2112 
Q 3559 1806 3559 1356 
Q 3559 666 3084 287 
Q 2609 -91 1734 -91 
Q 1441 -91 1130 -33 
Q 819 25 488 141 
L 488 750 
Q 750 597 1062 519 
Q 1375 441 1716 441 
Q 2309 441 2620 675 
Q 2931 909 2931 1356 
Q 2931 1769 2642 2001 
Q 2353 2234 1838 2234 
L 1294 2234 
L 1294 2753 
L 1863 2753 
Q 2328 2753 2575 2939 
Q 2822 3125 2822 3475 
Q 2822 3834 2567 4026 
Q 2313 4219 1838 4219 
Q 1578 4219 1281 4162 
Q 984 4106 628 3988 
L 628 4550 
Q 988 4650 1302 4700 
Q 1616 4750 1894 4750 
Q 2613 4750 3031 4423 
Q 3450 4097 3450 3541 
Q 3450 3153 3228 2886 
Q 3006 2619 2597 2516 
z
" id="DejaVuSans-33" transform="scale(0.015625)"/>
     </defs>
     <use xlink:href="#DejaVuSans-41c"/>
     <use x="86.279297" xlink:href="#DejaVuSans-435"/>
     <use x="147.802734" xlink:href="#DejaVuSans-436"/>
     <use x="237.890625" xlink:href="#DejaVuSans-43a"/>
     <use x="298.291016" xlink:href="#DejaVuSans-432"/>
     <use x="357.226562" xlink:href="#DejaVuSans-430"/>
     <use x="418.505859" xlink:href="#DejaVuSans-440"/>
     <use x="481.982422" xlink:href="#DejaVuSans-442"/>
     <use x="540.234375" xlink:href="#DejaVuSans-430"/>
     <use x="601.513672" xlink:href="#DejaVuSans-43b"/>
     <use x="665.429688" xlink:href="#DejaVuSans-44c"/>
     <use x="724.365234" xlink:href="#DejaVuSans-43d"/>
     <use x="789.746094" xlink:href="#DejaVuSans-44b"/>
     <use x="868.701172" xlink:href="#DejaVuSans-439"/>
     <use x="933.691406" xlink:href="#DejaVuSans-20"/>
     <use x="965.478516" xlink:href="#DejaVuSans-440"/>
     <use x="1028.955078" xlink:href="#DejaVuSans-430"/>
     <use x="1090.234375" xlink:href="#DejaVuSans-437"/>
     <use x="1143.408203" xlink:href="#DejaVuSans-43c"/>
     <use x="1218.847656" xlink:href="#DejaVuSans-430"/>
     <use x="1280.126953" xlink:href="#DejaVuSans-445"/>
     <use x="1339.306641" xlink:href="#DejaVuSans-3a"/>
     <use x="1372.998047" xlink:href="#DejaVuSans-20"/>
     <use x="1404.785156" xlink:href="#DejaVuSans-39"/>
     <use x="1468.408203" xlink:href="#DejaVuSans-33"/>
     <use x="1532.03125" xlink:href="#DejaVuSans-2e"/>
     <use x="1563.818359" xlink:href="#DejaVuSans-30"/>
    </g>
   </g>
   <g id="text_23">
    <!-- Интердециальный размах: 97.2 -->
    <g transform="translate(340.083594 100.9975)scale(0.09 -0.09)">
     <defs>
      <path d="M 4159 4666 
L 4159 0 
L 3547 0 
L 3547 3903 
L 1478 0 
L 628 0 
L 628 4666 
L 1241 4666 
L 1241 763 
L 3309 4666 
L 4159 4666 
z
" id="DejaVuSans-418" transform="scale(0.015625)"/>
     </defs>
     <use xlink:href="#DejaVuSans-418"/>
     <use x="74.804688" xlink:href="#DejaVuSans-43d"/>
     <use x="140.185547" xlink:href="#DejaVuSans-442"/>
     <use x="198.4375" xlink:href="#DejaVuSans-435"/>
     <use x="259.960938" xlink:href="#DejaVuSans-440"/>
     <use x="323.4375" xlink:href="#DejaVuSans-434"/>
     <use x="392.578125" xlink:href="#DejaVuSans-435"/>
     <use x="454.101562" xlink:href="#DejaVuSans-446"/>
     <use x="522.167969" xlink:href="#DejaVuSans-438"/>
     <use x="587.158203" xlink:href="#DejaVuSans-430"/>
     <use x="648.4375" xlink:href="#DejaVuSans-43b"/>
     <use x="712.353516" xlink:href="#DejaVuSans-44c"/>
     <use x="771.289062" xlink:href="#DejaVuSans-43d"/>
     <use x="836.669922" xlink:href="#DejaVuSans-44b"/>
     <use x="915.625" xlink:href="#DejaVuSans-439"/>
     <use x="980.615234" xlink:href="#DejaVuSans-20"/>
     <use x="1012.402344" xlink:href="#DejaVuSans-440"/>
     <use x="1075.878906" xlink:href="#DejaVuSans-430"/>
     <use x="1137.158203" xlink:href="#DejaVuSans-437"/>
     <use x="1190.332031" xlink:href="#DejaVuSans-43c"/>
     <use x="1265.771484" xlink:href="#DejaVuSans-430"/>
     <use x="1327.050781" xlink:href="#DejaVuSans-445"/>
     <use x="1386.230469" xlink:href="#DejaVuSans-3a"/>
     <use x="1419.921875" xlink:href="#DejaVuSans-20"/>
     <use x="1451.708984" xlink:href="#DejaVuSans-39"/>
     <use x="1515.332031" xlink:href="#DejaVuSans-37"/>
     <use x="1578.955078" xlink:href="#DejaVuSans-2e"/>
     <use x="1610.742188" xlink:href="#DejaVuSans-32"/>
    </g>
   </g>
   <g id="text_24">
    <!-- Дисперсия: 0.8252709936546764 -->
    <g transform="translate(340.083594 112.722187)scale(0.09 -0.09)">
     <defs>
      <path d="M 1459 531 
L 3522 531 
L 3522 4134 
L 2006 4134 
L 2006 3472 
Q 2006 1913 1656 878 
Q 1584 666 1459 531 
z
M 538 531 
Q 956 728 1075 1103 
Q 1378 2066 1378 3784 
L 1378 4666 
L 4153 4666 
L 4153 531 
L 4684 531 
L 4684 -1003 
L 4153 -1003 
L 4153 0 
L 847 0 
L 847 -1003 
L 316 -1003 
L 316 531 
L 538 531 
z
" id="DejaVuSans-414" transform="scale(0.015625)"/>
     </defs>
     <use xlink:href="#DejaVuSans-414"/>
     <use x="78.125" xlink:href="#DejaVuSans-438"/>
     <use x="143.115234" xlink:href="#DejaVuSans-441"/>
     <use x="198.095703" xlink:href="#DejaVuSans-43f"/>
     <use x="263.476562" xlink:href="#DejaVuSans-435"/>
     <use x="325" xlink:href="#DejaVuSans-440"/>
     <use x="388.476562" xlink:href="#DejaVuSans-441"/>
     <use x="443.457031" xlink:href="#DejaVuSans-438"/>
     <use x="508.447266" xlink:href="#DejaVuSans-44f"/>
     <use x="568.603516" xlink:href="#DejaVuSans-3a"/>
     <use x="602.294922" xlink:href="#DejaVuSans-20"/>
     <use x="634.082031" xlink:href="#DejaVuSans-30"/>
     <use x="697.705078" xlink:href="#DejaVuSans-2e"/>
     <use x="729.492188" xlink:href="#DejaVuSans-38"/>
     <use x="793.115234" xlink:href="#DejaVuSans-32"/>
     <use x="856.738281" xlink:href="#DejaVuSans-35"/>
     <use x="920.361328" xlink:href="#DejaVuSans-32"/>
     <use x="983.984375" xlink:href="#DejaVuSans-37"/>
     <use x="1047.607422" xlink:href="#DejaVuSans-30"/>
     <use x="1111.230469" xlink:href="#DejaVuSans-39"/>
     <use x="1174.853516" xlink:href="#DejaVuSans-39"/>
     <use x="1238.476562" xlink:href="#DejaVuSans-33"/>
     <use x="1302.099609" xlink:href="#DejaVuSans-36"/>
     <use x="1365.722656" xlink:href="#DejaVuSans-35"/>
     <use x="1429.345703" xlink:href="#DejaVuSans-34"/>
     <use x="1492.96875" xlink:href="#DejaVuSans-36"/>
     <use x="1556.591797" xlink:href="#DejaVuSans-37"/>
     <use x="1620.214844" xlink:href="#DejaVuSans-36"/>
     <use x="1683.837891" xlink:href="#DejaVuSans-34"/>
    </g>
   </g>
   <g id="text_25">
    <!-- Среднеквадратичное отклонение: 45.04145689813078 -->
    <g transform="translate(340.083594 124.446875)scale(0.09 -0.09)">
     <use xlink:href="#DejaVuSans-421"/>
     <use x="69.824219" xlink:href="#DejaVuSans-440"/>
     <use x="133.300781" xlink:href="#DejaVuSans-435"/>
     <use x="194.824219" xlink:href="#DejaVuSans-434"/>
     <use x="263.964844" xlink:href="#DejaVuSans-43d"/>
     <use x="329.345703" xlink:href="#DejaVuSans-435"/>
     <use x="390.869141" xlink:href="#DejaVuSans-43a"/>
     <use x="451.269531" xlink:href="#DejaVuSans-432"/>
     <use x="510.205078" xlink:href="#DejaVuSans-430"/>
     <use x="571.484375" xlink:href="#DejaVuSans-434"/>
     <use x="640.625" xlink:href="#DejaVuSans-440"/>
     <use x="704.101562" xlink:href="#DejaVuSans-430"/>
     <use x="765.380859" xlink:href="#DejaVuSans-442"/>
     <use x="823.632812" xlink:href="#DejaVuSans-438"/>
     <use x="888.623047" xlink:href="#DejaVuSans-447"/>
     <use x="947.705078" xlink:href="#DejaVuSans-43d"/>
     <use x="1013.085938" xlink:href="#DejaVuSans-43e"/>
     <use x="1074.267578" xlink:href="#DejaVuSans-435"/>
     <use x="1135.791016" xlink:href="#DejaVuSans-20"/>
     <use x="1167.578125" xlink:href="#DejaVuSans-43e"/>
     <use x="1228.759766" xlink:href="#DejaVuSans-442"/>
     <use x="1287.011719" xlink:href="#DejaVuSans-43a"/>
     <use x="1347.412109" xlink:href="#DejaVuSans-43b"/>
     <use x="1411.328125" xlink:href="#DejaVuSans-43e"/>
     <use x="1472.509766" xlink:href="#DejaVuSans-43d"/>
     <use x="1537.890625" xlink:href="#DejaVuSans-435"/>
     <use x="1599.414062" xlink:href="#DejaVuSans-43d"/>
     <use x="1664.794922" xlink:href="#DejaVuSans-438"/>
     <use x="1729.785156" xlink:href="#DejaVuSans-435"/>
     <use x="1791.308594" xlink:href="#DejaVuSans-3a"/>
     <use x="1825" xlink:href="#DejaVuSans-20"/>
     <use x="1856.787109" xlink:href="#DejaVuSans-34"/>
     <use x="1920.410156" xlink:href="#DejaVuSans-35"/>
     <use x="1984.033203" xlink:href="#DejaVuSans-2e"/>
     <use x="2015.820312" xlink:href="#DejaVuSans-30"/>
     <use x="2079.443359" xlink:href="#DejaVuSans-34"/>
     <use x="2143.066406" xlink:href="#DejaVuSans-31"/>
     <use x="2206.689453" xlink:href="#DejaVuSans-34"/>
     <use x="2270.3125" xlink:href="#DejaVuSans-35"/>
     <use x="2333.935547" xlink:href="#DejaVuSans-36"/>
     <use x="2397.558594" xlink:href="#DejaVuSans-38"/>
     <use x="2461.181641" xlink:href="#DejaVuSans-39"/>
     <use x="2524.804688" xlink:href="#DejaVuSans-38"/>
     <use x="2588.427734" xlink:href="#DejaVuSans-31"/>
     <use x="2652.050781" xlink:href="#DejaVuSans-33"/>
     <use x="2715.673828" xlink:href="#DejaVuSans-30"/>
     <use x="2779.296875" xlink:href="#DejaVuSans-37"/>
     <use x="2842.919922" xlink:href="#DejaVuSans-38"/>
    </g>
   </g>
   <g id="text_26">
    <!-- Коэффициент ассиметрии : -0.34987421784185907 -->
    <g transform="translate(340.083594 136.171562)scale(0.09 -0.09)">
     <defs>
      <path d="M 628 4666 
L 1259 4666 
L 1259 2359 
L 3516 4666 
L 4325 4666 
L 2522 2822 
L 4419 0 
L 3731 0 
L 2113 2403 
L 1259 1531 
L 1259 0 
L 628 0 
L 628 4666 
z
" id="DejaVuSans-41a" transform="scale(0.015625)"/>
      <path d="M 353 666 
Q 847 397 1338 397 
Q 1797 397 2125 664 
Q 2453 931 2513 1613 
L 738 1613 
L 738 2072 
L 2494 2072 
Q 2456 2400 2207 2748 
Q 1959 3097 1338 3097 
Q 856 3097 353 2828 
L 353 3366 
Q 844 3584 1363 3584 
Q 2181 3584 2651 3089 
Q 3122 2594 3122 1747 
Q 3122 903 2664 406 
Q 2206 -91 1403 -91 
Q 813 -91 353 134 
L 353 666 
z
" id="DejaVuSans-44d" transform="scale(0.015625)"/>
     </defs>
     <use xlink:href="#DejaVuSans-41a"/>
     <use x="70.996094" xlink:href="#DejaVuSans-43e"/>
     <use x="132.177734" xlink:href="#DejaVuSans-44d"/>
     <use x="187.060547" xlink:href="#DejaVuSans-444"/>
     <use x="272.558594" xlink:href="#DejaVuSans-444"/>
     <use x="358.056641" xlink:href="#DejaVuSans-438"/>
     <use x="423.046875" xlink:href="#DejaVuSans-446"/>
     <use x="491.113281" xlink:href="#DejaVuSans-438"/>
     <use x="556.103516" xlink:href="#DejaVuSans-435"/>
     <use x="617.626953" xlink:href="#DejaVuSans-43d"/>
     <use x="683.007812" xlink:href="#DejaVuSans-442"/>
     <use x="741.259766" xlink:href="#DejaVuSans-20"/>
     <use x="773.046875" xlink:href="#DejaVuSans-430"/>
     <use x="834.326172" xlink:href="#DejaVuSans-441"/>
     <use x="889.306641" xlink:href="#DejaVuSans-441"/>
     <use x="944.287109" xlink:href="#DejaVuSans-438"/>
     <use x="1009.277344" xlink:href="#DejaVuSans-43c"/>
     <use x="1084.716797" xlink:href="#DejaVuSans-435"/>
     <use x="1146.240234" xlink:href="#DejaVuSans-442"/>
     <use x="1204.492188" xlink:href="#DejaVuSans-440"/>
     <use x="1267.96875" xlink:href="#DejaVuSans-438"/>
     <use x="1332.958984" xlink:href="#DejaVuSans-438"/>
     <use x="1397.949219" xlink:href="#DejaVuSans-20"/>
     <use x="1429.736328" xlink:href="#DejaVuSans-3a"/>
     <use x="1463.427734" xlink:href="#DejaVuSans-20"/>
     <use x="1495.214844" xlink:href="#DejaVuSans-2d"/>
     <use x="1531.298828" xlink:href="#DejaVuSans-30"/>
     <use x="1594.921875" xlink:href="#DejaVuSans-2e"/>
     <use x="1626.708984" xlink:href="#DejaVuSans-33"/>
     <use x="1690.332031" xlink:href="#DejaVuSans-34"/>
     <use x="1753.955078" xlink:href="#DejaVuSans-39"/>
     <use x="1817.578125" xlink:href="#DejaVuSans-38"/>
     <use x="1881.201172" xlink:href="#DejaVuSans-37"/>
     <use x="1944.824219" xlink:href="#DejaVuSans-34"/>
     <use x="2008.447266" xlink:href="#DejaVuSans-32"/>
     <use x="2072.070312" xlink:href="#DejaVuSans-31"/>
     <use x="2135.693359" xlink:href="#DejaVuSans-37"/>
     <use x="2199.316406" xlink:href="#DejaVuSans-38"/>
     <use x="2262.939453" xlink:href="#DejaVuSans-34"/>
     <use x="2326.5625" xlink:href="#DejaVuSans-31"/>
     <use x="2390.185547" xlink:href="#DejaVuSans-38"/>
     <use x="2453.808594" xlink:href="#DejaVuSans-35"/>
     <use x="2517.431641" xlink:href="#DejaVuSans-39"/>
     <use x="2581.054688" xlink:href="#DejaVuSans-30"/>
     <use x="2644.677734" xlink:href="#DejaVuSans-37"/>
    </g>
   </g>
  </g>
 </g>
 <defs>
  <clipPath id="p93a321eb15">
   <rect height="234.49375" width="223.025" x="117.058594" y="7.2"/>
  </clipPath>
 </defs>
</svg>
